# xmcd
#
# Track frame offsets:
#	150
#	16083
#	32831
#	49345
#	66187
#	82387
#	97720
#	114003
#	134790
#	149942
#	161928
#	176449
#	191771
#	209150
#	224354
#	242742
#	259837
#	276776
#	290355
#	305391
#
# Disc length: 4312 seconds
#
# Revision: 1
# Processed by: cddbd v1.5.1PL0 Copyright (c) Steve Scherf et al.
# Submitted via: audiograbber 1.83.01
#
DISCID=3d10d614
DTITLE=Various Artist - ERG NCT 137
DYEAR=2005
DGENRE=Country
TTITLE0=Big and Rich - Comin' To Your City
TTITLE1=Trace Atkins - Honky Tonk Badonkadonk
TTITLE2=Tim McGraw - My Old Friend
TTITLE3=Paul Brandt - Alberta Bound
TTITLE4=Deric Ruttan - Shine
TTITLE5=Van Zant - Nobody Gonna Tell Me What To Do
TTITLE6=Brad Paisley ft. Dolly Parton - When I Get Where I'm Going
TTITLE7=Jason Blaine - Have You Ever Had A Heartache
TTITLE8=Cross Canadian Ragweed - Fightin' For
TTITLE9=Blake Shelton - Nobody But Me
TTITLE10=Erika Jo - I'm Not Lisa
TTITLE11=Sara Evans - Cheatin'
TTITLE12=Doug Stone - Everything
TTITLE13=Jason Boland and The Stragglers - (My Baby Loves Me) When I'm Stoned
TTITLE14=Sean Hogan - Cowboy's Heart, A
TTITLE15=Shawn King - In My Own Backyard
TTITLE16=Mike McClure Band - Remain
TTITLE17=Deryl Dodd - Stonger Proof
TTITLE18=Lila McCann ft. Jim Brickman - I'm Amazed
TTITLE19=Keith Bryant - Somebody
EXTD=
EXTT0=
EXTT1=
EXTT2=
EXTT3=
EXTT4=
EXTT5=
EXTT6=
EXTT7=
EXTT8=
EXTT9=
EXTT10=
EXTT11=
EXTT12=
EXTT13=
EXTT14=
EXTT15=
EXTT16=
EXTT17=
EXTT18=
EXTT19=
PLAYORDER=
